<?xml version="1.0" standalone="no"?>
<!DOCTYPE svg PUBLIC "-//W3C//DTD SVG 20010904//EN"
 "http://www.w3.org/TR/2001/REC-SVG-20010904/DTD/svg10.dtd">
<svg version="1.0" xmlns="http://www.w3.org/2000/svg"
 width="1080.000000pt" height="1080.000000pt" viewBox="0 0 1080.000000 1080.000000"
 preserveAspectRatio="xMidYMid meet">

<g transform="translate(0.000000,1080.000000) scale(0.100000,-0.100000)"
fill="#000000" stroke="none">
<path d="M5050 10709 c-1524 -101 -2931 -852 -3865 -2064 -906 -1175 -1276
-2661 -1030 -4135 238 -1426 1061 -2702 2270 -3519 883 -596 1910 -911 2975
-911 1651 0 3206 766 4215 2075 1072 1390 1388 3224 843 4895 -611 1875 -2227
3270 -4168 3595 -404 67 -844 90 -1240 64z m711 -419 c976 -75 1885 -425 2649
-1020 1097 -853 1773 -2116 1880 -3509 21 -280 11 -683 -25 -976 -247 -1998
-1726 -3662 -3685 -4144 -578 -143 -1199 -179 -1795 -106 -1986 246 -3639
1704 -4135 3650 -151 593 -190 1218 -115 1830 178 1442 1008 2746 2245 3530
670 424 1444 681 2240 744 154 12 586 13 741 1z"/>
<path d="M2972 8528 l3 -993 230 0 230 0 3 392 2 393 348 2 347 3 3 193 2 192
-350 0 -350 0 0 210 0 210 373 2 372 3 3 193 2 192 -610 0 -610 0 2 -992z"/>
<path d="M4587 9513 c-4 -3 -7 -446 -7 -983 0 -746 3 -979 12 -988 19 -19
1221 -17 1237 2 8 9 11 70 9 197 l-3 184 -392 3 -393 2 0 795 0 795 -228 0
c-126 0 -232 -3 -235 -7z"/>
<path d="M6312 8534 c-166 -543 -299 -991 -296 -995 3 -5 110 -9 239 -9 l234
0 20 68 c11 37 43 151 72 255 l52 187 272 0 272 0 47 -157 c26 -87 61 -202 77
-255 l30 -98 244 0 c134 0 246 3 248 8 3 4 -133 451 -301 995 l-307 987 -301
0 -300 0 -302 -986z m628 440 c21 -82 66 -241 99 -354 34 -113 61 -210 61
-217 0 -10 -46 -13 -199 -13 l-200 0 19 68 c103 369 130 472 150 564 13 59 25
106 27 104 2 -2 21 -70 43 -152z"/>
<path d="M3100 7030 c-8 -4 -51 -25 -95 -47 -59 -28 -98 -57 -152 -111 -40
-40 -73 -78 -73 -86 0 -7 -6 -19 -14 -26 -8 -6 -26 -42 -40 -78 l-26 -67 0
-2281 c0 -1273 4 -2284 9 -2289 4 -6 15 -31 23 -56 22 -64 98 -166 166 -220
63 -51 167 -109 195 -109 9 0 17 -4 17 -10 0 -13 304 -13 328 0 9 5 43 21 75
35 63 27 146 85 189 131 27 29 84 112 266 384 53 80 100 150 105 155 4 6 26
39 50 75 23 36 44 67 47 70 3 3 59 86 126 185 66 99 195 290 286 425 91 135
177 263 191 285 15 22 53 77 84 123 32 46 58 87 59 90 0 4 4 15 8 25 29 64
-52 160 -135 160 -43 0 -67 -16 -199 -132 -181 -159 -324 -283 -561 -486 -182
-157 -402 -348 -423 -367 -22 -20 -34 -22 -54 -10 -10 7 -12 319 -10 1532 3
1458 4 1523 21 1534 15 9 22 6 39 -14 30 -38 102 -122 113 -134 6 -6 40 -47
75 -91 36 -43 94 -114 130 -155 36 -42 83 -99 105 -125 76 -93 156 -190 178
-215 12 -13 45 -52 72 -85 65 -80 254 -306 309 -370 23 -27 147 -176 275 -330
128 -154 243 -291 255 -305 25 -29 235 -281 354 -425 46 -55 136 -163 200
-239 65 -77 140 -167 168 -200 27 -34 176 -211 330 -395 153 -184 315 -378
359 -431 188 -229 426 -511 459 -543 51 -51 93 -81 166 -117 36 -17 73 -36 82
-41 25 -13 448 -12 448 1 0 6 8 10 18 10 27 0 131 58 194 109 68 54 144 156
166 220 8 25 19 50 23 56 5 5 9 1016 9 2289 l0 2281 -26 67 c-14 36 -32 72
-40 78 -8 7 -14 19 -14 26 0 8 -33 46 -73 86 -54 54 -93 83 -152 111 -44 22
-88 43 -97 48 -23 12 -325 12 -332 0 -3 -4 -19 -11 -35 -14 -17 -4 -56 -21
-87 -38 -104 -59 -165 -127 -322 -363 -82 -121 -188 -279 -237 -351 -49 -71
-112 -166 -141 -210 -29 -44 -56 -84 -61 -90 -10 -12 -190 -279 -253 -375 -54
-82 -242 -361 -252 -375 -5 -5 -29 -41 -56 -80 -39 -59 -47 -77 -46 -116 1
-56 39 -104 94 -119 75 -20 87 -12 366 229 60 52 116 102 125 110 9 9 40 36
70 61 29 25 107 92 173 150 66 58 151 132 190 165 39 33 127 108 195 168 87
75 131 107 145 105 l21 -3 3 -1526 c2 -1736 10 -1598 -79 -1499 -27 30 -91
105 -141 166 -101 120 -113 134 -279 334 -62 74 -118 140 -123 146 -6 6 -27
30 -46 54 -19 25 -49 60 -66 80 -16 19 -51 61 -77 94 -26 32 -67 82 -91 110
-25 28 -62 72 -83 97 -71 84 -121 144 -140 165 -10 12 -31 39 -48 60 -28 36
-110 132 -210 249 -24 28 -54 64 -66 80 -21 27 -99 120 -168 201 -14 17 -42
50 -61 74 -19 24 -40 48 -45 54 -9 9 -106 125 -244 291 -14 17 -196 236 -253
304 -11 13 -156 186 -322 384 -165 197 -337 403 -381 457 -108 131 -261 314
-415 496 -133 157 -216 226 -305 254 -22 7 -44 16 -49 21 -13 11 -436 11 -456
-1z"/>
</g>
</svg>
