<?xml version="1.0" standalone="no"?>
<!DOCTYPE svg PUBLIC "-//W3C//DTD SVG 20010904//EN"
 "http://www.w3.org/TR/2001/REC-SVG-20010904/DTD/svg10.dtd">
<svg version="1.0" xmlns="http://www.w3.org/2000/svg"
 width="1080.000000pt" height="1080.000000pt" viewBox="0 0 1080.000000 1080.000000"
 preserveAspectRatio="xMidYMid meet">

<g transform="translate(0.000000,1080.000000) scale(0.100000,-0.100000)"
fill="#000000" stroke="none">
<path d="M5050 10709 c-1524 -101 -2931 -852 -3865 -2064 -906 -1175 -1276
-2661 -1030 -4135 238 -1426 1061 -2702 2270 -3519 883 -596 1910 -911 2975
-911 1651 0 3206 766 4215 2075 1072 1390 1388 3224 843 4895 -611 1875 -2227
3270 -4168 3595 -404 67 -844 90 -1240 64z m711 -419 c976 -75 1885 -425 2649
-1020 1097 -853 1773 -2116 1880 -3509 21 -280 11 -683 -25 -976 -247 -1998
-1726 -3662 -3685 -4144 -578 -143 -1199 -179 -1795 -106 -1986 246 -3639
1704 -4135 3650 -151 593 -190 1218 -115 1830 178 1442 1008 2746 2245 3530
670 424 1444 681 2240 744 154 12 586 13 741 1z"/>
<path d="M1662 8208 c-9 -9 -12 -335 -12 -1404 0 -766 3 -1399 6 -1408 5 -14
44 -16 329 -16 285 0 324 2 329 16 3 9 6 218 6 466 l0 450 106 129 c58 71 108
129 112 129 4 0 158 -267 342 -593 l335 -592 378 -3 c316 -2 378 0 383 12 3 7
-209 367 -477 807 -265 437 -483 797 -485 800 -1 3 204 272 457 598 280 361
458 598 455 607 -5 12 -68 14 -399 14 l-394 0 -319 -467 c-175 -257 -357 -528
-404 -602 l-85 -135 -3 589 c-1 414 -5 592 -13 602 -16 18 -629 19 -647 1z"/>
<path d="M4830 6640 c-154 -9 -296 -23 -423 -41 l-77 -11 2 -1397 3 -1396 325
0 325 0 3 549 2 548 158 -3 c155 -4 159 -5 224 -37 124 -61 166 -139 248 -468
74 -292 114 -430 152 -521 l30 -73 333 0 c227 0 334 3 337 11 2 6 -13 61 -34
122 -20 62 -73 247 -117 412 -108 402 -132 473 -206 585 -50 77 -123 149 -184
184 l-44 24 37 16 c70 29 172 105 243 180 80 84 134 173 171 284 23 69 26 93
26 227 0 173 -12 231 -76 365 -33 68 -57 100 -127 170 -73 73 -101 94 -191
138 -116 57 -242 94 -400 117 -127 19 -534 27 -740 15z m599 -516 c124 -28
200 -87 250 -194 22 -48 26 -68 26 -155 0 -89 -3 -107 -29 -162 -33 -72 -90
-129 -165 -167 -88 -45 -154 -57 -343 -63 l-178 -6 0 376 0 376 53 5 c148 17
282 13 386 -10z"/>
<path d="M6922 5218 c-9 -9 -12 -335 -12 -1404 0 -766 3 -1399 6 -1408 5 -14
44 -16 329 -16 285 0 324 2 329 16 3 9 6 218 6 466 l0 450 106 129 c58 71 108
129 112 129 4 0 158 -267 342 -593 l335 -592 378 -3 c316 -2 378 0 383 12 3 7
-209 367 -477 807 -265 437 -483 797 -485 800 -1 3 204 272 457 598 280 361
458 598 455 607 -5 12 -68 14 -399 14 l-394 0 -319 -467 c-175 -257 -357 -528
-404 -602 l-85 -135 -3 589 c-1 414 -5 592 -13 602 -16 18 -629 19 -647 1z"/>
</g>
</svg>
